<?xml version="1.0" encoding="utf-8"?>
<!-- Generator: Adobe Illustrator 23.0.1, SVG Export Plug-In . SVG Version: 6.00 Build 0)  -->
<svg version="1.1" id="Layer_1" xmlns="http://www.w3.org/2000/svg" xmlns:xlink="http://www.w3.org/1999/xlink" x="0px" y="0px"
	 viewBox="0 0 540.9 77" style="enable-background:new 0 0 540.9 77;" xml:space="preserve">
<style type="text/css">
	.st0{fill:#FFFFFF;}
	.st1{clip-path:url(#SVGID_2_);}
	.st2{clip-path:url(#SVGID_4_);fill:#F37021;}
	
		.st3{clip-path:url(#SVGID_4_);fill:none;stroke:#FFFFFF;stroke-width:2.874255e-02;stroke-linecap:round;stroke-linejoin:round;stroke-miterlimit:10;}
	.st4{clip-path:url(#SVGID_4_);fill:#A7A9AC;}
</style>

<g>
	<g>
		<defs>
			<polygon id="SVGID_1_" points="0.7,2 540.9,2 540.9,66.1 0.7,66.1 0.7,2 			"/>
		</defs>
		<clipPath id="SVGID_2_">
			<use xlink:href="#SVGID_1_"  style="overflow:visible;"/>
		</clipPath>
		<g class="st1">
			<defs>
				<polygon id="SVGID_3_" points="0.7,66.1 540.9,66.1 540.9,2 0.7,2 0.7,66.1 				"/>
			</defs>
			<clipPath id="SVGID_4_">
				<use xlink:href="#SVGID_3_"  style="overflow:visible;"/>
			</clipPath>
			<polygon class="st2" points="39.2,49.4 31.9,25.4 2,25.4 0,32 26.6,32 35.9,62.7 66.5,32 91.7,32 93.7,25.4 63.1,25.4 39.2,49.4 
							"/>
			<polygon class="st3" points="39.2,49.4 31.9,25.4 2,25.4 0,32 26.6,32 35.9,62.7 66.5,32 91.7,32 93.7,25.4 63.1,25.4 39.2,49.4 
							"/>
			<polygon class="st2" points="40.5,44 33.9,22.7 2.7,22.7 4,15.4 39.2,15.4 42.5,25.4 47.2,7.4 54.5,7.4 49.2,25.4 59.1,15.4 
				96.4,15.4 94.4,22 62.5,22 40.5,44 			"/>
			<polygon class="st3" points="40.5,44 33.9,22.7 2.7,22.7 4,15.4 39.2,15.4 42.5,25.4 47.2,7.4 54.5,7.4 49.2,25.4 59.1,15.4 
				96.4,15.4 94.4,22 62.5,22 40.5,44 			"/>
			<path class="st2" d="M131.6,25.4c0-1.3-0.7-2.7-1.3-2.7c0-0.7-1.3-1.3-2-1.3c-2.7,0-3.3,1.3-3.3,2.7c0,1.3,0.7,2,4.7,2.7
				c13.3,2,16.6,4.7,16.6,11.3c0,7.3-5.3,12-18.6,12c-10.6,0-17.3-3.3-17.3-12.7c14.6,0,14.6,0,14.6,0c0,2,0,3.3,0.7,4
				c0.7,0.7,1.3,0.7,2.7,0.7c2.7,0,3.3-1.3,3.3-2.7c0-0.7-0.7-2-2.7-2.7c-0.7,0-2,0-7.3-1.3c-8-1.3-11.3-4-11.3-10
				S115.6,14,127.6,14c10,0,17.3,2.7,17.3,11.3H131.6z"/>
			<path class="st2" d="M150.2,15.4c15.9,0,15.9,0,15.9,0c0,3.3,0,3.3,0,3.3c2.7-2.7,4.7-4,6.6-4c1.3,0,2.7,0,4.7,0.7
				c0,12.7,0,12.7,0,12.7c-2-0.7-4-1.3-6.6-1.3c-3.3,0-4.7,2-4.7,4.7c0,17.3,0,17.3,0,17.3c-15.9,0-15.9,0-15.9,0V15.4z"/>
			<polygon class="st2" points="180.1,0.7 196,0.7 196,28 196,28 202,15.4 219.9,15.4 210.6,29.4 220.6,48.7 202.7,48.7 196,31.4 
				196,31.4 196,48.7 180.1,48.7 180.1,0.7 			"/>
			<polygon class="st3" points="180.1,0.7 196,0.7 196,28 196,28 202,15.4 219.9,15.4 210.6,29.4 220.6,48.7 202.7,48.7 196,31.4 
				196,31.4 196,48.7 180.1,48.7 180.1,0.7 			"/>
			<path class="st4" d="M265.1,25.4c-0.7-5.3-4-7.3-9.3-7.3c-6.6,0-10,6-10,14c0,7.3,3.3,14,10,14c5.3,0,8.6-3.3,9.3-8c4,0,4,0,4,0
				c-1.3,8-5.3,12-13.3,12c-10,0-14.6-8.7-14.6-18s5.3-18,15.3-18c6.6,0,12.6,4,12.6,11.3H265.1z"/>
			<path class="st4" d="M306.3,32c0,8.7-5.3,18-15.9,18c-10.6,0-15.9-9.3-15.9-18c0-9.3,5.3-18,15.9-18C301,14,306.3,22.7,306.3,32
				L306.3,32z M290.4,18c-8,0-11.3,7.3-11.3,14c0,6,3.3,14,11.3,14s11.3-8,11.3-14C301.7,25.4,298.3,18,290.4,18L290.4,18z"/>
			<path class="st4" d="M318.3,48.7c-4,0-4,0-4,0c0-26,0-26,0-26c0-2.7,0-5.3,0-8c4,0,4,0,4,0c0,5.3,0,5.3,0,5.3l0,0
				c2.7-4,6.6-6,10.6-6c11.3,0,12,10,12,13.3c0,21.3,0,21.3,0,21.3c-4,0-4,0-4,0c0-22,0-22,0-22c0-5.3-3.3-8.7-8.6-8.7
				c-6.6,0-10,5.3-10,11.3V48.7z"/>
			<path class="st4" d="M362.8,14c6.6,0,12,2,12.6,9.3c-4.7,0-4.7,0-4.7,0c-0.7-4-4-5.3-8.6-5.3c-3.3,0-7.3,1.3-7.3,5.3
				c0,4.7,6.6,4,15.9,7.3c3.3,1.3,5.3,4.7,5.3,8c0,7.3-6.6,11.3-14,11.3c-6,0-12.6-3.3-12.6-10.7c4,0,4,0,4,0
				c0.7,5.3,5.3,6.7,9.3,6.7c4.7,0,9.3-2,9.3-6.7c0-4.7-5.3-5.3-10.6-6.7c-5.3-1.3-10.6-3.3-10.6-9.3C350.8,16.7,356.8,14,362.8,14
				L362.8,14z"/>
			<path class="st4" d="M408,14.7c4,0,4,0,4,0c0,26.7,0,26.7,0,26.7c0,2.7,0,5.3,0,7.3c-4,0-4,0-4,0c0-4.7,0-4.7,0-4.7
				c-0.7-0.7-0.7-0.7-0.7-0.7c-2,4.7-6,6.7-10,6.7c-11.3,0-12-10-12-14c0-21.3,0-21.3,0-21.3c4,0,4,0,4,0c0,22,0,22,0,22
				c0,6,3.3,9.3,8.6,9.3c6.6,0,10-5.3,10-11.3V14.7z"/>
			<polygon class="st4" points="426.6,48.7 422.6,48.7 422.6,0 426.6,0 426.6,48.7 			"/>
			<polygon class="st3" points="426.6,48.7 422.6,48.7 422.6,0 426.6,0 426.6,48.7 			"/>
			<path class="st4" d="M440.5,18.7c-7.3,0-7.3,0-7.3,0c0-4,0-4,0-4c7.3,0,7.3,0,7.3,0c0-6.7,0-6.7,0-6.7c4-2,4-2,4-2
				c0,8.7,0,8.7,0,8.7c7.3,0,7.3,0,7.3,0c0,4,0,4,0,4c-7.3,0-7.3,0-7.3,0c0,22.7,0,22.7,0,22.7c-0.7,3.3,1.3,4.7,4.7,4.7
				c0.7,0,2,0,3.3-0.7c0,4,0,4,0,4c-1.3,0-2.7,0.7-4,0.7c-8.6,0-8-6-8-10V18.7z"/>
			<path class="st4" d="M463.8,5.4h-4.7V0h4.7V5.4L463.8,5.4z M463.8,14.7v34h-4v-34H463.8L463.8,14.7z"/>
			<path class="st3" d="M463.8,5.4h-4.7V0h4.7V5.4L463.8,5.4z M463.8,14.7v34h-4v-34H463.8L463.8,14.7z"/>
			<path class="st4" d="M478.4,48.7c-4,0-4,0-4,0c0-26,0-26,0-26c0-2.7,0-5.3,0-8c4,0,4,0,4,0c0,5.3,0,5.3,0,5.3l0,0
				c2.7-4,6.6-6,10.6-6c11.3,0,12,10,12,13.3c0,21.3,0,21.3,0,21.3c-4,0-4,0-4,0c0-22,0-22,0-22c0-5.3-3.3-8.7-8.6-8.7
				c-6.6,0-10,5.3-10,11.3V48.7z"/>
			<path class="st4" d="M535.5,14.7c4,0,4,0,4,0c0,2.7-0.7,5.3-0.7,8c0,20,0,20,0,20c0,6.7,0.7,14-6.6,17.3c-2.7,1.3-4.7,1.3-8,1.3
				c-6,0-13.3-2-13.3-8.7c4.7,0,4.7,0,4.7,0c0,4,4.7,5.3,9.3,5.3c5.3,0,10-4,10-9.3c0-6.7,0-6.7,0-6.7l0,0c-2,4-6.6,6.7-10.6,6.7
				c-10.6,0-14.6-8-14.6-17.3c0-8.7,4-17.3,14-17.3c5.3,0,8.6,2,11.3,6l0,0L535.5,14.7z M524.2,18c-7.3,0-10.6,7.3-10.6,13.3
				c0,6,3.3,13.3,10.6,13.3c8,0,10.6-6.7,10.6-13.3C534.9,24.7,531.6,18,524.2,18L524.2,18z"/>
		</g>
	</g>
</g>
</svg>
